<?xml version="1.0" standalone="no"?>
<!DOCTYPE svg PUBLIC "-//W3C//DTD SVG 20010904//EN"
 "http://www.w3.org/TR/2001/REC-SVG-20010904/DTD/svg10.dtd">
<svg version="1.0" xmlns="http://www.w3.org/2000/svg"
 width="432.000000pt" height="432.000000pt" viewBox="0 0 432.000000 432.000000"
 preserveAspectRatio="xMidYMid meet">

<g transform="translate(0.000000,432.000000) scale(0.100000,-0.100000)"
fill="#000000" stroke="none">
<path d="M2883 4183 c-9 -3 -10 -10 -3 -23 6 -12 7 -21 0 -25 -6 -4 -6 -15 1
-32 7 -20 6 -28 -3 -35 -8 -5 -9 -8 -2 -8 17 0 10 -205 -7 -227 -12 -14 -12
-16 0 -9 9 6 12 5 9 -5 -3 -8 -2 -26 3 -40 4 -17 3 -32 -4 -39 -9 -10 -9 -11
0 -6 7 4 9 -1 6 -14 -3 -11 -9 -17 -14 -14 -5 3 -9 1 -9 -4 0 -6 7 -12 15 -16
8 -3 15 -11 15 -18 0 -10 -2 -10 -9 0 -6 10 -10 9 -14 -7 -3 -12 -1 -19 4 -15
5 3 10 0 10 -5 1 -6 2 -17 3 -23 1 -7 -2 -21 -7 -32 -6 -13 -6 -16 2 -11 8 4
10 -3 6 -24 -4 -21 -1 -31 7 -31 9 0 8 -3 -2 -10 -8 -5 -11 -10 -6 -10 5 0 3
-7 -4 -15 -9 -10 -9 -15 -1 -15 6 0 11 -5 11 -11 0 -5 -3 -8 -7 -6 -5 3 -8 -8
-8 -24 0 -16 3 -29 8 -29 4 0 7 -8 7 -17 0 -15 -2 -16 -10 -3 -5 9 -7 -9 -3
-50 8 -103 8 -303 0 -330 -6 -19 -6 -21 2 -10 9 13 11 13 11 -2 0 -10 -4 -18
-10 -18 -6 0 -6 -9 0 -25 6 -15 6 -26 0 -30 -6 -4 -10 -11 -10 -16 0 -6 5 -7
12 -3 7 5 8 3 2 -7 -5 -8 -9 -18 -9 -24 0 -6 -64 -12 -160 -15 -95 -4 32 -7
313 -8 370 -2 472 -5 472 -14 0 -7 -11 -58 -24 -113 l-23 -100 -178 -3 c-121
-2 -181 -6 -186 -14 -4 -6 -10 -32 -13 -57 -4 -25 -18 -98 -31 -161 -43 -206
-88 -433 -123 -612 l-17 -88 -135 -2 -135 -2 114 -3 c81 -3 117 -8 127 -18 18
-18 19 -26 4 -35 -9 -5 -9 -13 -1 -27 6 -12 9 -60 8 -109 -2 -49 0 -102 4
-117 6 -22 5 -28 -6 -24 -10 5 -11 -1 -5 -24 5 -18 5 -27 -1 -24 -11 7 -11 7
0 -32 7 -23 6 -33 -2 -36 -9 -3 -8 -8 2 -20 9 -12 10 -17 2 -17 -9 0 -9 -5 0
-21 6 -12 7 -19 1 -15 -5 3 -12 -3 -15 -14 -3 -11 -1 -18 4 -15 4 3 7 -11 6
-32 -1 -21 3 -44 8 -52 5 -9 5 -16 -2 -18 -7 -3 -8 -16 -2 -41 11 -48 11 -60
-1 -42 -7 11 -9 7 -7 -15 2 -17 7 -37 11 -44 5 -8 4 -16 -4 -21 -9 -6 -9 -12
-1 -29 8 -14 9 -27 2 -38 -5 -11 -5 -26 0 -42 7 -17 6 -27 -3 -33 -8 -4 -9 -8
-2 -8 8 0 11 -40 11 -125 0 -69 -3 -125 -6 -125 -3 0 -6 -18 -6 -39 0 -22 3
-37 8 -34 10 6 9 -9 -3 -27 -5 -9 -5 -19 1 -27 7 -8 7 -18 -1 -32 -6 -12 -7
-21 -1 -21 10 0 9 -25 -2 -36 -10 -10 -9 -26 1 -20 4 2 7 -8 6 -22 0 -15 4
-30 10 -34 7 -5 6 -8 -4 -9 -10 0 -8 -3 5 -8 11 -5 28 -4 38 1 10 5 26 11 36
13 9 2 69 28 132 58 216 103 388 224 568 400 343 335 554 750 627 1232 27 175
24 466 -5 640 -97 583 -392 1059 -878 1421 -95 70 -385 227 -420 227 -7 0 -13
5 -13 10 0 6 -3 8 -6 4 -4 -3 -18 0 -33 7 -14 7 -32 11 -40 8 -8 -3 -11 0 -7
7 8 12 7 12 -11 4z m689 -2223 c44 -37 61 -96 46 -164 -25 -120 -193 -168
-278 -81 -30 31 -35 43 -38 98 -3 53 0 67 20 97 39 57 82 80 152 80 54 0 66
-4 98 -30z"/>
<path d="M2471 2764 c0 -11 3 -14 6 -6 3 7 2 16 -1 19 -3 4 -6 -2 -5 -13z"/>
<path d="M2461 2724 c0 -11 3 -14 6 -6 3 7 2 16 -1 19 -3 4 -6 -2 -5 -13z"/>
<path d="M2331 2684 c0 -11 3 -14 6 -6 3 7 2 16 -1 19 -3 4 -6 -2 -5 -13z"/>
<path d="M2321 2644 c0 -11 3 -14 6 -6 3 7 2 16 -1 19 -3 4 -6 -2 -5 -13z"/>
<path d="M2633 2603 c92 -2 167 -6 167 -8 0 -3 -9 -46 -20 -97 -12 -50 -19
-95 -17 -101 3 -9 47 185 47 206 0 4 -78 6 -172 5 l-173 -2 168 -3z"/>
<path d="M2281 2434 c0 -11 3 -14 6 -6 3 7 2 16 -1 19 -3 4 -6 -2 -5 -13z"/>
<path d="M2752 2345 c0 -16 2 -22 5 -12 2 9 2 23 0 30 -3 6 -5 -1 -5 -18z"/>
<path d="M2742 2290 c0 -14 2 -19 5 -12 2 6 2 18 0 25 -3 6 -5 1 -5 -13z"/>
<path d="M2726 2224 c-4 -20 -5 -38 -3 -40 3 -3 8 11 11 32 4 20 5 38 3 40 -3
3 -8 -11 -11 -32z"/>
<path d="M2711 2154 c0 -11 3 -14 6 -6 3 7 2 16 -1 19 -3 4 -6 -2 -5 -13z"/>
<path d="M2686 2019 c-4 -23 -5 -44 -2 -46 2 -2 7 14 11 37 4 23 5 43 2 46 -2
3 -7 -14 -11 -37z"/>
<path d="M2671 1944 c0 -11 3 -14 6 -6 3 7 2 16 -1 19 -3 4 -6 -2 -5 -13z"/>
<path d="M2662 1900 c0 -14 2 -19 5 -12 2 6 2 18 0 25 -3 6 -5 1 -5 -13z"/>
<path d="M2161 1844 c0 -11 3 -14 6 -6 3 7 2 16 -1 19 -3 4 -6 -2 -5 -13z"/>
<path d="M2641 1784 c0 -11 3 -14 6 -6 3 7 2 16 -1 19 -3 4 -6 -2 -5 -13z"/>
<path d="M2631 1738 c0 -9 -4 -25 -7 -35 -5 -17 -5 -17 6 0 6 10 9 25 7 35 -4
15 -5 15 -6 0z"/>
<path d="M2854 489 c-4 -7 -3 -9 4 -5 5 3 13 0 15 -6 4 -9 6 -10 6 -1 1 17
-16 25 -25 12z"/>
</g>
</svg>
